# xmcd
# 
# Track frame offsets:
#     150
#     22176
#     43767
#     68969
#     93302
#     117859
#     138359
#     159645
#     177854
#     201312
#     217830
#     236849
#     257781
#     278581
#     305532
#     324955
# 
# Disc length: 4707
# 
# Revision: 1
# Processed by: cddbd v1.5.2PL0 Copyright (c) Steve Scherf et al.
# Submitted via: fre:ac v1.0.17
# 
DISCID=e6126110
DTITLE=久保田利伸 - THE BADDEST ～Collaboration～  (Disc1)
DYEAR=2016
DGENRE=JPop
TTITLE0=M☆A☆G☆I☆C　(KUBOTA meets KREVA)
TTITLE1=LA・LA・LA LOVE SONG　(Toshinobu Kubota with Naomi Campbell)
TTITLE2=無常(feat. Mos Def)
TTITLE3=FLYING EASY LOVING CRAZY(TOSHINOBU KUBOTA feat. MISIA)
TTITLE4=Let's Get A Groove ~Yo! Hips~(Bass: Meshell Ndegeocello, Saxophon: Michael Brecker)
TTITLE5=MIXED NUTS（P funk Chant: George Clinton, Bass and Guitar: William "Bootsy" Collins)
TTITLE6=Soul 2 Soul feat. AI 
TTITLE7=POLE POLE TAXI(feat. Maceo Parker)
TTITLE8=Golden Smile feat. EXILE ATSUSHI 
TTITLE9=Is it over ?(Hook Vocal: JUJU)
TTITLE10=Keep it Rock(feat. WISE, Tarantula from Spontania) 
TTITLE11=a Love Story (KUBOSSA ver.)(Flugelhorn: TOKU)
TTITLE12=Moondust(poetry reading by Kyoko Koizumi) 
TTITLE13=Keep Holding U(SunMin thanX Kubota) 
TTITLE14=Messengers' Rhyme ~Rakushow, it's your Show!~(Rakushow Voice: Naoko Iijima)　
TTITLE15=Love under the moon(Harmonica Solo: Toots Thielemans)
EXTD=2016.11.23  SECL-2095
EXTT0=
EXTT1=
EXTT2=
EXTT3=
EXTT4=
EXTT5=
EXTT6=
EXTT7=
EXTT8=
EXTT9=
EXTT10=
EXTT11=
EXTT12=
EXTT13=
EXTT14=
EXTT15=
PLAYORDER=
